<?xml version="1.0" encoding="UTF-8" standalone="no"?>
<!-- Created with Inkscape (http://www.inkscape.org/) -->

<svg
   width="62mm"
   height="62mm"
   viewBox="0 0 62 62"
   version="1.1"
   id="svg5"
   xml:space="preserve"
   inkscape:version="1.2.1 (9c6d41e410, 2022-07-14)"
   sodipodi:docname="AutIcon.svg"
   xmlns:inkscape="http://www.inkscape.org/namespaces/inkscape"
   xmlns:sodipodi="http://sodipodi.sourceforge.net/DTD/sodipodi-0.dtd"
   xmlns="http://www.w3.org/2000/svg"
   xmlns:svg="http://www.w3.org/2000/svg"><sodipodi:namedview
     id="namedview7"
     pagecolor="#ffffff"
     bordercolor="#000000"
     borderopacity="0.25"
     inkscape:showpageshadow="2"
     inkscape:pageopacity="0.0"
     inkscape:pagecheckerboard="0"
     inkscape:deskcolor="#d1d1d1"
     inkscape:document-units="mm"
     showgrid="true"
     inkscape:zoom="2.5197128"
     inkscape:cx="129.97513"
     inkscape:cy="126.80017"
     inkscape:window-width="1278"
     inkscape:window-height="1368"
     inkscape:window-x="3193"
     inkscape:window-y="0"
     inkscape:window-maximized="0"
     inkscape:current-layer="layer1" /><defs
     id="defs2"><clipPath
       clipPathUnits="userSpaceOnUse"
       id="clipPath3708"><rect
         style="fill:none;stroke:#000000;stroke-width:1.21046;stroke-linejoin:round"
         id="rect3710"
         width="21.16762"
         height="19.697544"
         x="20.392769"
         y="13.462416"
         rx="1.0219443" /></clipPath></defs><g
     inkscape:label="Lag 1"
     inkscape:groupmode="layer"
     id="layer1"
     style="stroke:#000000;stroke-opacity:1"><circle
       style="fill:none;fill-opacity:1;stroke:#000000;stroke-width:1.565;stroke-dasharray:none;stroke-opacity:1"
       id="OuterCircle"
       cx="30.983421"
       cy="30.985453"
       r="29.848497"
       inkscape:label="" /><g
       id="g3339"
       inkscape:label="Icon"
       transform="matrix(1.262238,0,0,1.2416527,-20.26679,-22.16491)"
       style="stroke:#000000;stroke-opacity:1"><rect
         style="fill:none;stroke:#000000;stroke-width:1.167;stroke-linejoin:round;stroke-opacity:1"
         id="rect3633"
         width="20.791059"
         height="46.622375"
         x="20.791061"
         y="8.4004278"
         rx="1.0240426"
         transform="matrix(0.79224363,0,0,0.8053782,16.056235,17.851135)" /><ellipse
         style="fill:none;stroke:#000000;stroke-width:1.167;stroke-linejoin:round;stroke-opacity:1"
         id="path3687"
         cx="31.396597"
         cy="23.311188"
         rx="14.595744"
         ry="8.4004288"
         clip-path="url(#clipPath3708)"
         transform="matrix(0.79224363,0,0,0.6547643,16.222615,20.178157)" /><rect
         style="fill:none;stroke:#000000;stroke-width:1.167;stroke-linejoin:round;stroke-opacity:1"
         id="rect3712"
         width="6.5103316"
         height="0.21001069"
         x="28.141434"
         y="11.550589"
         rx="1.0219443"
         transform="matrix(0.79224363,0,0,0.8053782,16.056235,17.851135)" /><rect
         style="fill:none;stroke:#000000;stroke-width:1.167;stroke-linejoin:round;stroke-opacity:1"
         id="rect3716"
         width="20.581049"
         height="0.42002138"
         x="21.00107"
         y="49.982548"
         rx="1.0219443"
         transform="matrix(0.79224363,0,0,0.8053782,16.056235,17.851135)" /><rect
         style="fill:none;stroke:#000000;stroke-width:1.167;stroke-linejoin:round;stroke-opacity:1"
         id="rect3718"
         width="15.540792"
         height="11.760599"
         x="23.5212"
         y="15.960814"
         rx="1.4929827"
         transform="matrix(0.79224363,0,0,0.8053782,16.056235,17.851135)" /><rect
         style="fill:none;stroke:#000000;stroke-width:1.167;stroke-linejoin:round;stroke-opacity:1"
         id="rect3720"
         width="6.715579"
         height="6.6825008"
         x="32.339924"
         y="31.778997"
         rx="1.493"
         transform="matrix(0.79224363,0,0,0.8053782,16.056235,17.851135)" /><rect
         style="fill:none;stroke:#000000;stroke-width:1.167;stroke-linejoin:round;stroke-opacity:1"
         id="rect3848"
         width="0.18221283"
         height="0.13949355"
         x="33.844604"
         y="33.289383"
         transform="matrix(0.79224363,0,0,0.8053782,16.056235,17.851135)" /><rect
         style="fill:none;stroke:#000000;stroke-width:1.167;stroke-linejoin:round;stroke-opacity:1"
         id="rect3894"
         width="0.18221283"
         height="0.13949355"
         x="35.603443"
         y="33.289383"
         transform="matrix(0.79224363,0,0,0.8053782,16.056235,17.851135)" /><rect
         style="fill:none;stroke:#000000;stroke-width:1.167;stroke-linejoin:round;stroke-opacity:1"
         id="rect3896"
         width="0.18221283"
         height="0.13949355"
         x="37.30978"
         y="33.289383"
         transform="matrix(0.79224363,0,0,0.8053782,16.056235,17.851135)" /><rect
         style="fill:none;stroke:#000000;stroke-width:1.167;stroke-linejoin:round;stroke-opacity:1"
         id="rect3898"
         width="0.18221283"
         height="0.13949355"
         x="33.844604"
         y="34.838211"
         transform="matrix(0.79224363,0,0,0.8053782,16.056235,17.851135)" /><rect
         style="fill:none;stroke:#000000;stroke-width:1.167;stroke-linejoin:round;stroke-opacity:1"
         id="rect3900"
         width="0.18221283"
         height="0.13949355"
         x="35.603443"
         y="34.838211"
         transform="matrix(0.79224363,0,0,0.8053782,16.056235,17.851135)" /><rect
         style="fill:none;stroke:#000000;stroke-width:1.167;stroke-linejoin:round;stroke-opacity:1"
         id="rect3902"
         width="0.18221283"
         height="0.13949355"
         x="37.30978"
         y="34.838211"
         transform="matrix(0.79224363,0,0,0.8053782,16.056235,17.851135)" /><rect
         style="fill:none;stroke:#000000;stroke-width:1.167;stroke-linejoin:round;stroke-opacity:1"
         id="rect3904"
         width="0.18221283"
         height="0.13949355"
         x="33.844604"
         y="36.439541"
         transform="matrix(0.79224363,0,0,0.8053782,16.056235,17.851135)" /><rect
         style="fill:none;stroke:#000000;stroke-width:1.167;stroke-linejoin:round;stroke-opacity:1"
         id="rect3906"
         width="0.18221283"
         height="0.13949355"
         x="35.603443"
         y="36.439541"
         transform="matrix(0.79224363,0,0,0.8053782,16.056235,17.851135)" /><rect
         style="fill:none;stroke:#000000;stroke-width:1.167;stroke-linejoin:round;stroke-opacity:1"
         id="rect3908"
         width="0.18221283"
         height="0.13949355"
         x="37.30978"
         y="36.439541"
         transform="matrix(0.79224363,0,0,0.8053782,16.056235,17.851135)" /><rect
         style="fill:none;stroke:#000000;stroke-width:1.167;stroke-linejoin:round;stroke-opacity:1"
         id="rect3910"
         width="4.4549999"
         height="0.1485"
         x="23.76"
         y="32.669998"
         transform="matrix(0.79224363,0,0,0.8053782,16.056235,17.851135)" /><rect
         style="fill:none;stroke:#000000;stroke-width:1.167;stroke-linejoin:round;stroke-opacity:1"
         id="rect3912"
         width="4.4549999"
         height="0.1485"
         x="23.76"
         y="37.718998"
         transform="matrix(0.79224363,0,0,0.8053782,16.056235,17.851135)" /></g></g></svg>
